# File created by Blade
# Date/Time:  Thu Jan 22 19:13:14 2015
# Frame Rate: 120.000 fps
#------------------------------------------------------
:FULLY-SPECIFIED
:DEGREES
2567
root 0.243637 29.836994 -6.079689 27.335548 -18.484102 3.668235
RightUpLeg -62.575965 -31.778988 4.855168
RightLeg 45.266434 -0.000000 -0.000000
RightFoot -17.040388 -10.196314 5.325409
RightToeBase 1.077732 -0.000000 -0.000000
LeftUpLeg -33.674319 35.305338 8.799197
LeftLeg 17.417364 -0.000000 -0.000000
LeftFoot -7.525201 12.358726 -36.101063
LeftToeBase 11.897069 -0.000000 -0.000000
Spine 1.102383 -1.876487 3.041961
RightShoulder -15.998182 -9.341692 -25.803062
RightArm 17.239835 30.315489 65.839712
RightForeArm 11.103543 -0.000000 26.747427
RightHand 20.742345 -0.000000 -11.939780
RightHandThumb1 -24.326973 -0.000000 -32.862282
LeftShoulder -22.040834 6.935493 18.951935
LeftArm 10.775094 -8.779316 -74.351371
LeftForeArm 17.400182 -0.000000 20.625850
LeftHand -1.186332 -0.000000 1.445188
LeftHandThumb1 -26.253704 0.000000 33.147579
Head -24.970874 8.889563 -8.193351
2568
root 0.357513 29.848395 -6.034069 27.142886 -18.108819 3.652018
RightUpLeg -62.001396 -32.069751 4.524927
RightLeg 44.843899 -0.000000 -0.000000
RightFoot -16.839862 -10.362013 5.269799
RightToeBase 0.861851 -0.000000 -0.000000
LeftUpLeg -33.864057 34.836009 8.923315
LeftLeg 18.085135 -0.000000 -0.000000
LeftFoot -8.013139 12.268680 -36.336245
LeftToeBase 12.064136 -0.000000 -0.000000
Spine 0.907493 -1.788558 3.074751
RightShoulder -15.988832 -9.382563 -25.833378
RightArm 17.133222 30.446145 65.754977
RightForeArm 11.105523 -0.000000 26.918299
RightHand 20.766597 -0.000000 -11.903917
RightHandThumb1 -24.326973 -0.000000 -32.862282
LeftShoulder -22.168589 7.024396 18.841688
LeftArm 10.537759 -9.261270 -74.143674
LeftForeArm 17.290944 0.000000 20.589387
LeftHand -1.247333 -0.000000 1.616287
LeftHandThumb1 -26.253704 0.000000 33.147579
Head -25.184165 8.724951 -8.311255
2569
root 0.468137 29.860617 -5.989678 26.940236 -17.722502 3.593523
RightUpLeg -61.340903 -32.272417 4.149651
RightLeg 44.419385 -0.000000 -0.000000
RightFoot -16.600526 -10.577731 5.394516
RightToeBase 0.646322 -0.000000 -0.000000
LeftUpLeg -34.104310 34.424047 9.082889
LeftLeg 18.889345 -0.000000 -0.000000
LeftFoot -8.475740 12.071821 -36.570926
LeftToeBase 12.206362 -0.000000 -0.000000
Spine 0.758631 -1.677287 3.119432
RightShoulder -15.952693 -9.410566 -25.856348
RightArm 16.884974 30.637486 65.663900
RightForeArm 10.946004 -0.000000 27.201238
RightHand 20.770157 -0.000000 -11.660422
RightHandThumb1 -24.326973 -0.000000 -32.862282
LeftShoulder -22.213559 7.067622 18.753118
LeftArm 10.200247 -9.733617 -73.897034
LeftForeArm 17.195605 -0.000000 20.641534
LeftHand -1.337994 -0.000000 2.027280
LeftHandThumb1 -26.253704 0.000000 33.147579
Head -25.418606 8.556842 -8.379781
2570
root 0.582078 29.871976 -5.944214 26.723329 -17.367223 3.581457
RightUpLeg -60.706043 -32.452419 3.712121
RightLeg 44.025323 -0.000000 -0.000000
RightFoot -16.395414 -10.933161 5.387847
RightToeBase 0.869502 -0.000000 -0.000000
LeftUpLeg -34.414787 34.076127 9.147919
LeftLeg 19.831889 -0.000000 -0.000000
LeftFoot -8.877879 11.705021 -36.619940
LeftToeBase 12.169811 -0.000000 -0.000000
Spine 0.629944 -1.534188 3.085417
RightShoulder -15.981313 -9.508040 -25.853396
RightArm 16.733181 30.691346 65.594159
RightForeArm 10.988974 -0.000000 27.381630
RightHand 20.755519 -0.000000 -12.064644
RightHandThumb1 -24.326973 -0.000000 -32.862282
LeftShoulder -22.205169 6.942273 18.770470
LeftArm 9.783406 -10.258449 -73.643393
LeftForeArm 17.114309 -0.000000 20.515174
LeftHand -1.398170 0.000000 2.344067
LeftHandThumb1 -26.253704 0.000000 33.147579
Head -25.705506 8.409898 -8.406766
2571
root 0.701298 29.886253 -5.906256 26.569020 -17.077816 3.593780
RightUpLeg -60.204507 -32.613596 3.349538
RightLeg 43.574088 -0.000000 -0.000000
RightFoot -16.171754 -11.307614 5.576071
RightToeBase 1.259041 -0.000000 -0.000000
LeftUpLeg -34.860992 33.786345 9.095463
LeftLeg 20.884832 -0.000000 -0.000000
LeftFoot -9.205335 11.243902 -36.429490
LeftToeBase 12.123861 -0.000000 -0.000000
Spine 0.458983 -1.347005 2.953766
RightShoulder -16.034055 -9.700267 -25.809752
RightArm 16.711816 30.879398 65.659526
RightForeArm 10.805776 -0.000000 27.571109
RightHand 20.591088 -0.000000 -11.691302
RightHandThumb1 -24.326973 -0.000000 -32.862282
LeftShoulder -22.266809 7.025109 18.760003
LeftArm 9.657565 -10.867316 -73.460423
LeftForeArm 17.048232 -0.000000 20.345936
LeftHand -1.475163 -0.000000 2.328002
LeftHandThumb1 -26.253704 0.000000 33.147579
Head -25.996206 8.222341 -8.365041
2572
root 0.818831 29.897581 -5.866339 26.385479 -16.826047 3.612524
RightUpLeg -59.637087 -32.680981 2.874966
RightLeg 43.163906 -0.000000 -0.000000
RightFoot -15.921809 -11.722960 5.671870
RightToeBase 1.492749 -0.000000 -0.000000
LeftUpLeg -35.308811 33.544956 9.029774
LeftLeg 22.026849 -0.000000 -0.000000
LeftFoot -9.531844 10.692306 -36.098718
LeftToeBase 12.137663 -0.000000 -0.000000
Spine 0.317310 -1.107344 2.731481
RightShoulder -16.054052 -9.854171 -25.721750
RightArm 16.519651 30.957884 65.630876
RightForeArm 10.883904 -0.000000 27.805150
RightHand 20.497031 -0.000000 -11.821740
RightHandThumb1 -24.326973 -0.000000 -32.862282
LeftShoulder -22.226117 7.036046 18.864699
LeftArm 9.438803 -11.455955 -73.256352
LeftForeArm 17.073146 0.000000 20.137161
LeftHand -1.401796 -0.000000 2.693266
LeftHandThumb1 -26.253704 0.000000 33.147579
Head -26.245243 7.898473 -8.179201
2573
root 0.938473 29.907777 -5.825429 26.187090 -16.597915 3.674081
RightUpLeg -59.062580 -32.729523 2.315355
RightLeg 42.789934 -0.000000 -0.000000
RightFoot -15.694664 -12.086150 5.892762
RightToeBase 1.718602 -0.000000 -0.000000
LeftUpLeg -35.754804 33.277094 8.923464
LeftLeg 23.182136 -0.000000 -0.000000
LeftFoot -9.815175 10.133451 -35.485737
LeftToeBase 12.055263 -0.000000 -0.000000
Spine 0.200250 -0.878385 2.454915
RightShoulder -16.103968 -10.008553 -25.668650
RightArm 16.338685 31.017506 65.673647
RightForeArm 10.914627 -0.000000 28.016574
RightHand 20.608528 -0.000000 -11.666671
RightHandThumb1 -24.326973 -0.000000 -32.862282
LeftShoulder -22.256215 7.099696 18.897701
LeftArm 9.419140 -12.011345 -73.006268
LeftForeArm 17.089024 0.000000 19.828448
LeftHand -1.494291 0.000000 3.023424
LeftHandThumb1 -26.253704 0.000000 33.147579
Head -26.533671 7.673641 -8.047440
2574
root 1.063361 29.917696 -5.787859 26.022378 -16.420664 3.757971
RightUpLeg -58.562398 -32.745332 1.749125
RightLeg 42.429341 -0.000000 -0.000000
RightFoot -15.459769 -12.483619 6.237086
RightToeBase 2.064370 -0.000000 -0.000000
LeftUpLeg -36.229388 33.016277 8.755875
LeftLeg 24.321086 -0.000000 -0.000000
LeftFoot -10.063477 9.533365 -34.524689
LeftToeBase 11.970970 -0.000000 -0.000000
Spine 0.040761 -0.643338 2.103880
RightShoulder -16.131039 -10.276143 -25.561384
RightArm 16.349369 31.153833 65.823718
RightForeArm 10.811126 -0.000000 28.163469
RightHand 20.515436 0.000000 -11.696013
RightHandThumb1 -24.326973 -0.000000 -32.862282
LeftShoulder -22.224832 7.133248 18.997181
LeftArm 9.324465 -12.603950 -72.738371
LeftForeArm 17.067070 -0.000000 19.453661
LeftHand -1.315617 -0.000000 3.325704
LeftHandThumb1 -26.253704 0.000000 33.147579
Head -26.778632 7.489167 -7.868480
2575
root 1.185989 29.924268 -5.751697 25.865384 -16.207917 3.783568
RightUpLeg -57.994564 -32.719480 1.195754
RightLeg 42.028874 -0.000000 -0.000000
RightFoot -15.223606 -12.861042 6.599244
RightToeBase 2.245904 -0.000000 -0.000000
LeftUpLeg -36.711022 32.769517 8.639907
LeftLeg 25.479107 -0.000000 -0.000000
LeftFoot -10.361304 8.808423 -33.351551
LeftToeBase 11.807690 -0.000000 -0.000000
Spine -0.082578 -0.413403 1.825054
RightShoulder -16.215911 -10.511396 -25.471614
RightArm 16.355582 31.252116 65.990050
RightForeArm 10.672752 -0.000000 28.310839
RightHand 20.368421 -0.000000 -11.625194
RightHandThumb1 -24.326973 -0.000000 -32.862282
LeftShoulder -22.161297 7.078146 19.105134
LeftArm 9.135701 -13.173007 -72.407117
LeftForeArm 16.961623 0.000000 19.149666
LeftHand -1.434892 0.000000 3.707660
LeftHandThumb1 -26.253704 0.000000 33.147579
Head -27.063549 7.296431 -7.728054
2576
root 1.314096 29.926691 -5.710931 25.683381 -16.021962 3.830888
RightUpLeg -57.437800 -32.693942 0.580268
RightLeg 41.721376 -0.000000 -0.000000
RightFoot -15.002506 -13.247251 6.891318
RightToeBase 2.700251 -0.000000 -0.000000
LeftUpLeg -37.125635 32.543458 8.501961
LeftLeg 26.583830 -0.000000 -0.000000
LeftFoot -10.647783 7.992595 -32.179555
LeftToeBase 11.709965 -0.000000 -0.000000
Spine -0.187397 -0.225495 1.506284
RightShoulder -16.268566 -10.653647 -25.355484
RightArm 16.307870 31.183764 65.986996
RightForeArm 10.669157 -0.000000 28.348380
RightHand 20.484107 0.000000 -11.513443
RightHandThumb1 -24.326973 -0.000000 -32.862282
LeftShoulder -22.191988 7.152553 19.160744
LeftArm 9.164471 -13.677225 -72.084747
LeftForeArm 16.818259 0.000000 18.723467
LeftHand -1.419858 -0.000000 4.052229
LeftHandThumb1 -26.253704 0.000000 33.147579
Head -27.342537 7.149850 -7.587093
2577
root 1.441360 29.927932 -5.672575 25.554124 -15.868760 3.828524
RightUpLeg -56.885299 -32.608678 0.026822
RightLeg 41.300368 -0.000000 -0.000000
RightFoot -14.759060 -13.578214 7.471358
RightToeBase 2.716498 -0.000000 -0.000000
LeftUpLeg -37.538690 32.376721 8.379867
LeftLeg 27.619895 -0.000000 -0.000000
LeftFoot -11.021303 7.299516 -31.271704
LeftToeBase 11.801358 -0.000000 -0.000000
Spine -0.327025 -0.012160 1.218053
RightShoulder -16.325402 -10.679130 -25.266993
RightArm 16.153939 31.079637 65.939941
RightForeArm 10.649816 -0.000000 28.430064
RightHand 20.397653 -0.000000 -11.544293
RightHandThumb1 -24.326973 -0.000000 -32.862282
LeftShoulder -22.206572 7.163096 19.213088
LeftArm 9.119130 -14.185916 -71.717108
LeftForeArm 16.667057 -0.000000 18.318061
LeftHand -1.564320 -0.000000 4.508679
LeftHandThumb1 -26.253704 0.000000 33.147579
Head -27.611214 6.974169 -7.472692
2578
root 1.571673 29.926075 -5.632633 25.420078 -15.718760 3.809030
RightUpLeg -56.372142 -32.620069 -0.427897
RightLeg 40.858903 -0.000000 -0.000000
RightFoot -14.515491 -13.809684 7.878890
RightToeBase 2.862007 -0.000000 -0.000000
LeftUpLeg -37.909207 32.240236 8.267829
LeftLeg 28.592681 -0.000000 -0.000000
LeftFoot -11.428994 6.710684 -30.460227
LeftToeBase 11.709297 -0.000000 -0.000000
Spine -0.453832 0.174949 0.953729
RightShoulder -16.379003 -10.691455 -25.185510
RightArm 16.063235 31.033132 65.932017
RightForeArm 10.526409 0.000000 28.432201
RightHand 20.511298 0.000000 -11.255704
RightHandThumb1 -24.326973 -0.000000 -32.862282
LeftShoulder -22.197647 7.227371 19.242677
LeftArm 9.056575 -14.610722 -71.296940
LeftForeArm 16.254093 -0.000000 17.995011
LeftHand -1.932106 -0.000000 4.493157
LeftHandThumb1 -26.253704 0.000000 33.147579
Head -27.860215 6.827967 -7.376787
2579
root 1.704620 29.921139 -5.587307 25.258874 -15.542665 3.779508
RightUpLeg -55.805483 -32.673610 -0.882949
RightLeg 40.422013 -0.000000 -0.000000
RightFoot -14.293672 -14.026425 8.232639
RightToeBase 3.056028 -0.000000 -0.000000
LeftUpLeg -38.215121 32.094326 8.202780
LeftLeg 29.498520 -0.000000 -0.000000
LeftFoot -11.875525 6.109066 -29.876388
LeftToeBase 11.548439 -0.000000 -0.000000
Spine -0.553038 0.303725 0.721301
RightShoulder -16.413389 -10.750017 -25.089834
RightArm 16.044217 30.908799 65.894028
RightForeArm 10.539195 -0.000000 28.354550
RightHand 20.699868 -0.000000 -11.266876
RightHandThumb1 -24.326973 -0.000000 -32.862282
LeftShoulder -22.243928 7.294561 19.215044
LeftArm 9.083940 -14.836105 -70.773214
LeftForeArm 15.648712 -0.000000 17.502283
LeftHand -1.999928 -0.000000 4.911732
LeftHandThumb1 -26.253704 0.000000 33.147579
Head -28.120561 6.659922 -7.303574
